<?xml version="1.0" encoding="UTF-8"?>
<svg width="350px" height="43px" viewBox="0 0 350 43" version="1.1" xmlns="http://www.w3.org/2000/svg" xmlns:xlink="http://www.w3.org/1999/xlink">
    <!-- Generator: Sketch 61.2 (89653) - https://sketch.com -->
    <title>logo</title>
    <desc>Created with Sketch.</desc>
    <g id="Symbols" stroke="none" stroke-width="1" fill="none" fill-rule="evenodd">
        <g id="desktop/logos/f&amp;m/full" fill="#000000">
            <g id="logo">
                <path d="M200.571557,33.5065373 C202.350054,33.5065373 203.690591,35.5573302 203.690591,38.2771219 C203.690591,40.9880276 202.350054,43.0318385 200.571557,43.0318385 C198.763229,43.0318385 197.451255,41.0324583 197.451255,38.2771219 C197.451255,35.5573302 198.790522,33.5065373 200.571557,33.5065373 Z M151.23079,33.5265311 C152.491986,33.5265311 153.350133,34.3104151 153.492311,34.3104151 C153.623699,34.3104151 153.78238,33.8407195 153.854103,33.687751 L153.854103,33.687751 L154.414565,33.687751 L154.414565,36.9546748 L153.844583,36.9546748 C153.360923,35.2631357 152.431687,34.271697 151.409782,34.271697 C150.67858,34.271697 150.165088,34.7325065 150.165088,35.3970624 C150.165088,36.2304548 150.733801,36.4710152 151.862975,36.9521359 L151.862975,36.9521359 L152.103535,37.0543264 C153.819828,37.7848936 154.874105,38.32187 154.874105,40.0197563 C154.874105,41.7373191 153.732871,42.9344083 152.103535,42.9344083 C150.683658,42.9344083 149.917546,42.0127893 149.698566,42.0127893 C149.513227,42.0127893 149.369779,42.4951794 149.258068,42.7325662 L149.258068,42.7325662 L148.649368,42.7325662 L148.710301,39.0695747 L149.332965,39.0695747 C149.707452,40.9585129 150.824566,42.1498896 152.091475,42.1498896 C152.831563,42.1498896 153.348228,41.6389369 153.348228,40.9020225 C153.348228,39.8813865 152.518644,39.4789716 151.052432,38.8575769 C149.480221,38.1911169 148.625883,37.563375 148.625883,36.1415935 C148.625883,34.6741119 149.769655,33.5265311 151.23079,33.5265311 Z M212.739087,33.6833079 C212.788596,35.7817051 212.20465,36.9851415 211.590237,38.0578249 C211.01962,39.0524372 210.665444,39.6725624 210.665444,40.6125884 C210.665444,40.9197948 210.787946,41.4218614 210.787946,41.6452842 C210.787946,42.3910847 210.357603,42.8531637 209.664485,42.8531637 C208.964384,42.8531637 208.49215,42.2730261 208.49215,41.4072627 C208.49215,40.2838015 209.11164,39.1089276 210.335388,37.9124731 C211.143391,37.1177988 211.639111,36.4468957 211.750822,35.4605348 L211.750822,35.4605348 L209.369973,35.4605348 C208.772063,35.4605348 208.45597,35.7817051 208.305541,36.790916 L208.305541,36.790916 L207.558471,36.790916 C207.558471,36.790916 207.781894,34.715369 207.806013,33.6833079 L207.806013,33.6833079 Z M193.476741,33.6833079 C193.526249,35.7817051 192.939765,36.9851415 192.327256,38.0578249 C191.757274,39.0524372 191.402463,39.6725624 191.402463,40.6125884 C191.402463,40.9197948 191.5256,41.4218614 191.5256,41.6452842 C191.5256,42.3910847 191.095257,42.8531637 190.403408,42.8531637 C189.699499,42.8531637 189.229169,42.2730261 189.229169,41.4072627 C189.229169,40.2838015 189.849294,39.1089276 191.071137,37.9124731 C191.881045,37.1177988 192.37486,36.4468957 192.489745,35.4605348 L192.489745,35.4605348 L190.108261,35.4605348 C189.510351,35.4605348 189.193624,35.7817051 189.04256,36.790916 L189.04256,36.790916 L188.293586,36.790916 C188.293586,36.790916 188.517009,34.715369 188.543032,33.6833079 L188.543032,33.6833079 Z M143.808773,33.7345936 L144.018867,36.6029108 L143.297186,36.6029108 C143.077571,34.958976 142.269568,34.4283468 140.353971,34.4283468 C139.458376,34.4283468 139.458376,34.4638914 139.458376,35.0687832 L139.458376,37.6660733 L139.694493,37.6660733 C140.967114,37.6660733 141.525671,37.2319222 141.537731,36.0005578 L141.537731,36.0005578 L142.265759,36.0005578 L142.265759,40.0634253 L141.539635,40.0634253 C141.525671,38.8123846 140.972192,38.3979099 139.694493,38.3979099 L139.694493,38.3979099 L139.458376,38.3979099 L139.458543,41.3559485 C139.461383,41.8881056 139.512503,42.0336082 140.432677,42.0336082 C142.058205,42.0336082 143.117559,41.2332214 143.3797,39.6724354 L143.3797,39.6724354 L144.086782,39.6724354 L143.839874,42.7286309 L136.499293,42.7286309 L136.499293,42.0697875 L137.165753,42.0697875 C137.501522,42.0697875 137.596096,41.9942553 137.596096,41.4934582 L137.596096,41.4934582 L137.596096,34.9329523 C137.596096,34.4334246 137.49454,34.3534494 137.165753,34.3534494 L137.165753,34.3534494 L136.499293,34.3534494 L136.499293,33.7345936 L143.808773,33.7345936 Z M183.327379,33.6830541 L183.327379,41.2711779 C183.327379,41.9446199 183.432743,42.0461758 184.134113,42.0461758 L184.134113,42.0461758 L184.636815,42.0461758 L184.636815,42.7285039 L180.111233,42.7285039 L180.111233,42.0461758 L180.680581,42.0461758 C181.38322,42.0461758 181.489219,41.9446199 181.489219,41.2711779 L181.489219,41.2711779 L181.489219,37.292094 C181.489219,36.4625099 181.350214,36.3177928 180.568869,36.3177928 L180.568869,36.3177928 L180.146143,36.3177928 L180.146143,35.6170577 C181.282934,35.5180408 182.358156,34.9182267 182.713601,33.6830541 L182.713601,33.6830541 L183.327379,33.6830541 Z M166.510434,33.7325625 L166.641187,37.0248752 L166.085804,37.0248752 C165.920775,35.2717679 165.044856,34.3469752 164.322541,34.3469752 C163.89791,34.3469752 163.79572,34.6611635 163.79572,35.4698017 L163.79572,35.4698017 L163.79572,41.3613087 C163.79572,41.9059018 163.92076,42.0645828 164.351738,42.0645828 L164.351738,42.0645828 L165.157203,42.0645828 L165.157203,42.7285039 L160.606232,42.7285039 L160.606232,42.0645828 L161.412332,42.0645828 C161.843309,42.0645828 161.967715,41.9059018 161.967715,41.3613087 L161.967715,41.3613087 L161.967715,35.4698017 C161.967715,34.6611635 161.865525,34.3469752 161.440894,34.3469752 C160.718579,34.3469752 159.84266,35.2717679 159.677631,37.0248752 L159.677631,37.0248752 L159.122248,37.0248752 L159.253001,33.7325625 L166.510434,33.7325625 Z M200.571557,34.1793446 C199.708968,34.1793446 199.459521,35.0514552 199.459521,38.0670283 L199.460042,38.3580563 C199.470983,41.3040153 199.660292,42.3577617 200.571557,42.3577617 C201.526182,42.3577617 201.682324,41.1555947 201.682324,38.2771219 C201.682324,35.3865894 201.526182,34.1793446 200.571557,34.1793446 Z M137.45671,1.20950185 L137.45671,2.29170605 L136.84928,2.29170605 C134.330061,2.29170605 134.216445,2.95499249 134.216445,5.26094431 L134.217295,16.2148823 C134.245429,20.6516891 134.988853,22.6365102 138.998455,22.6365102 C143.115908,22.6365102 143.811566,20.5698493 143.811566,15.9401734 L143.811566,15.9401734 L143.811431,7.41102357 C143.806955,3.87513492 143.670474,2.28281991 140.450703,2.28281991 L140.450703,2.28281991 L140.450703,1.20950185 L148.429182,1.20950185 L148.429182,2.28281991 C145.715103,2.28281991 145.462483,3.61383587 145.462483,7.58847674 L145.462483,17.570779 C145.462483,22.8078857 143.058783,25.248399 137.895939,25.248399 C132.11297,25.248399 129.963795,22.995764 129.963795,16.9379593 L129.963795,16.9379593 L129.963469,5.06729131 C129.95547,2.91763187 129.780922,2.29170605 127.361427,2.29170605 L127.361427,2.29170605 L126.905696,2.29170605 L126.905696,1.20950185 L137.45671,1.20950185 Z M33.6999228,0.633045633 C39.432114,0.633045633 43.7545836,5.92283436 43.7545836,12.9397067 C43.7545836,19.9584833 39.432114,25.248272 33.6999228,25.248272 C27.9385342,25.248272 23.6757287,19.8835859 23.6757287,12.9397067 C23.6757287,5.49693465 28.2749379,0.633045633 33.6999228,0.633045633 Z M59.711859,1.19902891 C65.7239635,1.19902891 68.4037677,2.86010127 68.4037677,6.58275677 C68.4037677,9.94615856 66.5243503,11.5735906 61.9657635,12.0889863 C65.5126005,12.6342141 66.920418,14.0680554 67.2517439,17.3241888 C67.352665,18.2642149 67.36409,19.1255352 67.3774192,19.8840302 C67.4066165,21.7843934 67.4637417,22.7003 68.4323303,22.7003 C69.1743225,22.7003 69.4618524,21.9894093 69.4618524,20.1633087 L69.4618524,20.1633087 L69.4618524,19.8046897 L70.7954072,19.8046897 L70.7954072,20.5308138 C70.7954072,23.7926598 69.5456359,25.2480816 66.7376175,25.2480816 C63.8845338,25.2480816 62.4970274,23.3572392 62.4970274,19.4657472 L62.4970274,19.4657472 L62.5281288,17.2676984 C62.5281288,13.760849 61.3424647,12.8297091 57.0161868,12.8297091 C57.0161868,12.8297091 56.0323648,12.8265355 55.8971686,12.8297091 L55.8971686,12.8297091 L55.8971686,21.6948974 C55.8971686,23.1033496 56.2437278,23.532423 57.3798835,23.532423 L57.3798835,23.532423 L58.8651374,23.532423 L58.8651374,24.7142788 L48.5058091,24.7142788 L48.5058091,23.532423 L50.0215297,23.532423 C51.1475299,23.532423 51.4744127,23.1217566 51.4744127,21.6948974 L51.4744127,21.6948974 L51.4744127,4.12256705 C51.4744127,2.69570779 51.1475299,2.28186783 50.0215297,2.28186783 L50.0215297,2.28186783 L48.5058091,2.28186783 L48.5058091,1.19902891 Z M18.9817553,1.20175822 L19.5130191,8.30876139 L18.1236086,8.30876139 C17.506657,4.13100888 15.2483095,2.48453516 10.2066978,2.48453516 C7.70006119,2.48453516 7.55261198,2.82469444 7.5439385,4.21622208 L7.54339641,10.9879308 L8.17621611,10.9879308 C11.79922,10.9879308 13.2559112,9.81051806 13.4203047,6.52709149 L13.4203047,6.52709149 L14.8097153,6.52709149 L14.8097153,16.8311988 L13.4203047,16.8311988 C13.2832044,13.6417113 11.7674838,12.3697247 8.17621611,12.3697247 L8.17621611,12.3697247 L7.54339641,12.3697247 L7.54339641,21.6982614 C7.54339641,23.124486 7.86900975,23.535787 8.99437517,23.535787 L8.99437517,23.535787 L10.479629,23.535787 L10.479629,24.7170081 L0.120300752,24.7170081 L0.120300752,23.535787 L1.6347519,23.535787 C2.7620215,23.535787 3.08826957,23.124486 3.08826957,21.6982614 L3.08826957,21.6982614 L3.08826957,4.12402692 C3.08826957,2.69716766 2.7620215,2.28459714 1.6347519,2.28459714 L1.6347519,2.28459714 L0.120300752,2.28459714 L0.120300752,1.20175822 L18.9817553,1.20175822 Z M94.7060901,1.19985405 L95.0475716,9.80480555 L93.7254418,9.80480555 C92.8768159,5.09515444 90.6140254,2.45026007 88.9859586,2.45026007 C87.8751919,2.45026007 87.4429449,3.27222748 87.4429449,5.38649269 L87.4429449,5.38649269 L87.4429449,21.6620822 C87.4429449,23.0889414 87.7685582,23.5027814 88.8951931,23.5027814 L88.8951931,23.5027814 L91.1675046,23.5027814 L91.1675046,24.715104 L79.2645278,24.715104 L79.2645278,23.5027814 L81.5362046,23.5027814 C82.6628394,23.5027814 82.9890875,23.0889414 82.9890875,21.6620822 L82.9890875,21.6620822 L82.9890875,5.38649269 C82.9890875,3.27222748 82.5562058,2.45026007 81.4467085,2.45026007 C79.8161029,2.45026007 77.6009166,5.03104733 76.7065906,9.80480555 L76.7065906,9.80480555 L75.3844608,9.80480555 L75.7246728,1.19985405 L94.7060901,1.19985405 Z M107.409898,1.20010794 C107.409898,1.20010794 117.13958,17.7968677 117.469002,18.3611372 L117.469002,18.3611372 L117.468402,7.37503173 C117.457777,4.04055148 117.267385,2.22187232 114.078942,2.273426 L114.078942,2.273426 L114.078942,1.20010794 L122.025685,1.20010794 L122.025685,2.273426 C119.199894,2.273426 119.05835,3.83992451 119.05835,7.58225645 L119.05835,24.7147231 L116.207806,24.7147231 C116.207806,24.7147231 105.235969,6.18142087 104.905278,5.62159441 L104.905278,5.62159441 L104.905278,18.000614 C104.905278,22.087601 105.077922,23.5341367 108.266775,23.5341367 L108.266775,23.5341367 L108.266775,24.7147231 L100.320667,24.7147231 L100.320667,23.533502 L100.653897,23.533502 C103.04998,23.533502 103.288001,22.0000091 103.288001,18.2335577 L103.288001,4.12237663 C103.288001,2.69551738 102.961118,2.28294686 101.834484,2.28294686 L101.834484,2.28294686 L100.349864,2.28294686 L100.349864,1.20010794 Z M266.656404,1.06649856 C266.656404,1.06649856 272.791011,19.5033228 272.792915,19.5033228 C273.71263,22.37164 274.16011,23.5344541 275.944319,23.5344541 L275.944319,23.5344541 L276.553019,23.5344541 L276.553019,24.7150405 L266.49455,24.7150405 L266.49455,23.5344541 L267.25241,23.5344541 C268.554863,23.5344541 269.040427,23.24502 269.040427,22.4617708 C269.040427,22.1355227 268.038833,19.0082382 268.001384,18.891449 L268.001384,18.891449 L260.170161,18.891449 C260.041312,19.2633972 259.313284,21.3852791 259.313284,22.1951867 C259.313284,23.0235014 259.631915,23.5344541 261.219994,23.5344541 L261.219994,23.5344541 L261.676361,23.5344541 L261.676361,24.7150405 L254.396713,24.7150405 L254.396713,23.5344541 L254.60998,23.5344541 C256.866423,23.5344541 257.595086,21.6607492 258.790271,18.0720205 L258.790271,18.0720205 L264.485649,1.06649856 Z M33.6999228,1.91582257 C30.2419471,1.91582257 28.7649447,5.20432694 28.7649447,12.9073358 C28.7649447,20.5868599 30.2419471,23.8658434 33.6999228,23.8658434 C37.1813832,23.8658434 38.6660023,20.5868599 38.6660023,12.9073358 C38.6660023,5.20432694 37.1813832,1.91582257 33.6999228,1.91582257 Z M264.219699,6.6755534 C264.051498,7.18777556 260.816945,16.9479245 260.741413,17.1770598 L260.741413,17.1770598 L267.469486,17.1770598 C267.399031,16.949194 264.380919,7.19094918 264.219699,6.6755534 Z M58.5617394,2.48180585 C55.979048,2.48180585 55.8971686,2.75156349 55.8971686,4.18857833 L55.8971686,4.18857833 L55.8971686,11.4180832 L58.8645027,11.4180832 C61.9219675,11.4180832 63.3462879,9.93473353 63.3462879,6.74968915 C63.3462879,3.51894465 62.1834738,2.48180585 58.5617394,2.48180585 Z M287.752595,0.632410909 C291.172487,0.632410909 293.293099,2.7301733 293.86562,2.7301733 C294.425447,2.7301733 294.728845,1.71524983 295.046841,1.06592731 L295.046841,1.06592731 L296.078902,1.06592731 L296.078902,9.23799713 L295.039225,9.23799713 C293.702496,4.71495484 291.140751,2.04911459 288.23435,2.04911459 C286.076289,2.04911459 284.570724,3.40742367 284.570724,5.3522176 C284.570724,7.77749751 286.259724,8.48838824 289.330518,9.77941659 L289.330518,9.77941659 L289.995074,10.0599645 C294.674258,12.0295127 297.321057,13.3586245 297.321057,17.7337761 C297.321057,22.1590709 294.354992,25.248272 290.111863,25.248272 C286.335256,25.248272 284.306044,22.7849087 283.600231,22.7849087 C282.895053,22.7849087 282.559919,23.8785379 282.207647,24.7144692 L282.207647,24.7144692 L281.054354,24.7144692 L281.207322,15.4773328 L282.371406,15.4773328 C283.496771,20.5481418 286.502189,23.7325514 290.08457,23.7325514 C292.25723,23.7325514 293.774855,22.2384114 293.774855,20.0962184 C293.774855,17.1866442 291.46319,16.0727038 287.380012,14.3570451 C283.239073,12.6255184 280.99342,10.9949128 280.99342,7.34842417 C280.99342,3.58324218 283.960754,0.632410909 287.752595,0.632410909 Z M312.772013,0.633045633 C318.501031,0.633045633 322.826674,5.92346909 322.826674,12.9397067 C322.826674,19.9578486 318.501031,25.248272 312.772013,25.248272 C307.010625,25.248272 302.745915,19.8835859 302.745915,12.9397067 C302.745915,5.49693465 307.342585,0.633045633 312.772013,0.633045633 Z M200.308845,0.775858504 C203.002613,0.775858504 204.882031,2.66860508 204.882031,5.37951073 C204.882031,7.73243212 203.586559,9.52044926 200.602088,11.2507065 C201.772518,13.6512322 203.33267,16.1875888 204.893456,18.1825259 C206.334914,16.223768 207.534542,13.8905231 207.534542,12.2884801 C207.534542,11.3693999 206.796993,10.8235374 205.776991,10.8235374 L205.776991,10.8235374 L205.776991,9.80163193 L212.451113,9.80163193 L212.451113,10.8235374 C210.637707,10.8235374 209.864613,11.8733706 208.840169,14.2281962 C208.173709,15.7534377 207.21591,17.6595134 205.961696,19.4564167 C207.27367,20.9112038 208.524076,21.8550382 209.466006,21.8550382 C210.872555,21.8550382 211.855107,20.1374754 211.855107,17.6785552 L211.855107,17.6785552 L211.855107,17.6576093 L213.212781,17.6576093 L213.212781,17.676651 C213.315607,20.1603255 212.597734,22.4504092 211.297185,23.8068141 C210.438403,24.7005053 209.346044,25.1733746 208.133721,25.1733746 C206.285405,25.1733746 204.577363,24.124176 203.1029,22.7062029 C201.396762,24.1965346 199.368184,25.2203442 197.011455,25.2203442 C193.347829,25.2203442 190.978404,22.7671364 190.978404,18.9689488 C190.978404,15.6436304 192.834972,13.2037519 196.500502,11.7197675 C196.507484,11.7165938 196.514466,11.7140549 196.520178,11.7115161 C195.679804,9.42651012 195.206935,7.4474411 195.206935,6.36206328 C195.206935,3.07228946 197.305332,0.775858504 200.308845,0.775858504 Z M232.937651,1.19864807 C232.937651,1.19864807 237.835815,17.4463097 238.009095,18.0181959 C238.175392,17.4444055 242.902181,1.19864807 242.902181,1.19864807 L242.902181,1.19864807 L251.071712,1.19864807 L251.071712,2.28148699 L249.585189,2.28148699 C248.457919,2.28148699 248.129767,2.69532696 248.129767,4.12155149 L248.129767,4.12155149 L248.129767,21.6951513 C248.129767,23.1213758 248.457919,23.5326769 249.585189,23.5326769 L249.585189,23.5326769 L251.071712,23.5326769 L251.071712,24.7145327 L240.951674,24.7145327 L240.951674,23.5326769 L242.438198,23.5326769 C243.563563,23.5326769 243.889177,23.1213758 243.889177,21.6951513 L243.889177,21.6951513 L243.889177,3.4036788 C243.551503,4.57664851 237.660631,24.913836 237.660631,24.913836 L237.660631,24.913836 L235.799621,24.913836 C235.799621,24.913836 229.783091,5.25350739 229.179514,3.28222954 L229.145176,3.17010041 L229.145176,18.0004236 C229.145176,22.0861412 229.315282,23.5333116 232.504769,23.5333116 L232.504769,23.5333116 L232.504769,24.7145327 L224.558661,24.7145327 L224.558661,23.5326769 L224.891256,23.5326769 C227.286704,23.5326769 227.525995,21.999184 227.525995,18.2333673 L227.525995,4.12155149 C227.525995,2.69532696 227.198478,2.28148699 226.070573,2.28148699 L226.070573,2.28148699 L224.589128,2.28148699 L224.589128,1.19864807 Z M161.709129,1.19864807 C161.709129,1.19864807 166.607293,17.4463097 166.780572,18.0181959 C166.94687,17.4444055 171.674293,1.19864807 171.674293,1.19864807 L171.674293,1.19864807 L179.843824,1.19864807 L179.843824,2.28148699 L178.357301,2.28148699 C177.229397,2.28148699 176.901879,2.69532696 176.901879,4.12155149 L176.901879,4.12155149 L176.901879,21.6951513 C176.901879,23.1213758 177.229397,23.5326769 178.357301,23.5326769 L178.357301,23.5326769 L179.843824,23.5326769 L179.843824,24.7145327 L169.723787,24.7145327 L169.723787,23.5326769 L171.21031,23.5326769 C172.335041,23.5326769 172.660654,23.1213758 172.660654,21.6951513 L172.660654,21.6951513 L172.660654,3.4036788 C172.323616,4.57664851 166.432109,24.913836 166.432109,24.913836 L166.432109,24.913836 L164.571733,24.913836 C164.571733,24.913836 158.2575,4.28277136 157.916654,3.17010041 L157.916654,3.17010041 L157.916924,18.2631549 C157.925477,22.1483777 158.15611,23.5333116 161.276882,23.5333116 L161.276882,23.5333116 L161.276882,24.7145327 L153.330139,24.7145327 L153.330139,23.5326769 L153.663369,23.5326769 C156.058182,23.5326769 156.298742,21.999184 156.298742,18.2333673 L156.298742,18.2333673 L156.298742,4.12155149 C156.298742,2.69532696 155.97059,2.28148699 154.843321,2.28148699 L154.843321,2.28148699 L153.360606,2.28148699 L153.360606,1.19864807 Z M334.50261,1.2011235 C334.50261,1.2011235 344.232292,17.798518 344.564253,18.3621528 L344.564253,18.3621528 L344.563638,7.37715854 C344.552802,4.0416222 344.359985,2.2235226 341.169115,2.27507628 L341.169115,2.27507628 L341.169115,1.2011235 L349.120301,1.2011235 L349.120301,2.27507628 C346.290702,2.27507628 346.151062,3.84094007 346.151062,7.58454145 L346.151062,7.58454145 L346.151062,24.7170081 L343.299883,24.7170081 C343.299883,24.7170081 332.32995,6.18370587 331.99799,5.62387942 L331.99799,5.62387942 L331.998266,18.2656303 C332.007003,22.1508531 332.241834,23.535787 335.360122,23.535787 L335.360122,23.535787 L335.360122,24.7170081 L327.412744,24.7170081 L327.412744,23.535787 L327.746609,23.535787 C330.139518,23.535787 330.378809,22.0016594 330.378809,18.2358427 L330.378809,4.12402692 C330.378809,2.69780238 330.054465,2.28396242 328.927196,2.28396242 L328.927196,2.28396242 L327.441942,2.28396242 L327.441942,1.2011235 Z M312.772013,1.91582257 C309.310229,1.91582257 307.837035,5.20432694 307.837035,12.9073358 C307.837035,20.5868599 309.310229,23.8658434 312.772013,23.8658434 C316.250935,23.8658434 317.735554,20.5868599 317.735554,12.9073358 C317.735554,5.20432694 316.250935,1.91582257 312.772013,1.91582257 Z M197.157441,13.3237147 C195.479866,14.6039527 194.851489,15.8841908 194.851489,17.6785552 C194.851489,19.6976118 195.994627,21.5459277 197.633484,22.1730349 C198.922608,22.6643111 200.370413,22.3691645 201.839799,21.3409119 C200.676985,19.9470583 199.721091,18.4192779 199.049553,17.2190151 C198.330411,15.9317951 197.693148,14.6039527 197.157441,13.3237147 Z M200.647153,2.40329051 C199.450064,2.40329051 198.643964,3.50707531 198.643964,5.15354903 C198.643964,6.30620758 199.154282,8.00092031 199.96546,9.872721 C201.457061,8.77210981 202.624318,7.26717952 202.624318,5.15354903 C202.624318,3.48359053 201.850589,2.40329051 200.647153,2.40329051 Z"></path>
            </g>
        </g>
    </g>
</svg>