<svg xmlns="http://www.w3.org/2000/svg" width="612" height="612.36" viewBox="0 89.818 612 612.363" enable-background="new 0 89.818 612 612.363"><title>global</title><circle cx="306" cy="396" r="306.18" fill="#73D700"/><path fill="#fff" d="M306 616.73C184.1 616.73 85.27 517.9 85.27 396S184.1 175.27 306 175.27 526.73 274.1 526.73 396 427.9 616.73 306 616.73zm0-397.3c-97-.18-175.78 78.3-175.95 175.3-.17 97 78.32 175.8 175.32 175.96 96.76.16 175.43-77.95 175.95-174.7.35-97.17-78.14-176.23-175.32-176.58zM306 616.73c-65.6 0-114.78-94.6-114.78-220.73S240.1 175.27 306 175.27 420.46 269.87 420.46 396 370.96 616.73 306 616.73zm0-397.3c-29.32 0-69.7 66.84-69.7 175.63S276.68 570.7 306 570.7s69.37-66.86 69.37-174.7c0-107.84-40.68-176.58-69.37-176.58zM495.2 427.53H116.8c-12.44-1.48-21.34-12.77-19.86-25.22 1.23-10.4 9.45-18.63 19.87-19.86h378.4c12.45 1.47 21.35 12.76 19.87 25.22-1.23 10.42-9.45 18.64-19.87 19.87z"/></svg>