<svg id="Layer_1" data-name="Layer 1" xmlns="http://www.w3.org/2000/svg" viewBox="0 0 50 50"><title>map_pin</title><path d="M25,3.25A18.49,18.49,0,0,0,6.55,21.73c0,6.37,3.13,12.7,9,18.31a44.14,44.14,0,0,0,8.95,6.59,1,1,0,0,0,.92,0,42.72,42.72,0,0,0,9-6.49c5.91-5.57,9-11.94,9-18.42A18.49,18.49,0,0,0,25,3.25Zm0,41.36C22.3,43.05,8.55,34.52,8.55,21.73a16.45,16.45,0,1,1,32.9,0C41.45,34.73,27.72,43.09,25,44.61Z" style="fill:#8b8b8b"/><path d="M25,13.55a8.15,8.15,0,1,0,8.15,8.15A8.16,8.16,0,0,0,25,13.55Zm0,14.29a6.15,6.15,0,1,1,6.15-6.15A6.15,6.15,0,0,1,25,27.84Z" style="fill:#8b8b8b"/></svg>