<svg id="Ebene_1" data-name="Ebene 1" xmlns="http://www.w3.org/2000/svg" viewBox="0 0 289 640.5"><defs><style>.cls-1{fill:#939393;}</style></defs><title>switch</title><rect class="cls-1" x="116.3" y="179.4" width="56.3" height="281.65" rx="13.3" ry="13.3"/><path class="cls-1" d="M285.1,159.4a13.3,13.3,0,0,0,0-18.7L193.7,49.3l-9.3-9.4-9.3-9.4L154,9.3,144.5,0h-0.1L135,9.3,113.9,30.4l-9.3,9.4-9.3,9.4L3.9,140.7a13.3,13.3,0,0,0,0,18.7L25,180.5a13.3,13.3,0,0,0,18.7,0l91.4-91.4a13.3,13.3,0,0,1,18.7,0l91.4,91.4a13.3,13.3,0,0,0,18.7,0Z"/><path class="cls-1" d="M285.1,481a13.3,13.3,0,0,1,0,18.7l-91.4,91.4-9.3,9.4-9.3,9.4L154,631.1l-9.4,9.3h-0.1l-9.4-9.3-21.1-21.1-9.3-9.4-9.3-9.4L3.9,499.8a13.3,13.3,0,0,1,0-18.7L25,460a13.3,13.3,0,0,1,18.7,0l91.4,91.4a13.3,13.3,0,0,0,18.7,0L245.3,460a13.3,13.3,0,0,1,18.7,0Z"/></svg>